<svg width="56" height="56" viewBox="0 0 56 56" fill="none" xmlns="http://www.w3.org/2000/svg">
<g id="deployed_code">
<mask id="mask0_6_103" style="mask-type:alpha" maskUnits="userSpaceOnUse" x="0" y="0" width="56" height="56">
<rect id="Bounding box" x="0.0189209" width="55.9621" height="55.9621" fill="#D9D9D9"/>
</mask>
<g mask="url(#mask0_6_103)">
<path id="deployed_code_2" d="M25.6682 45.2943V29.3218L11.6777 21.219V37.1915L25.6682 45.2943ZM30.3317 45.2943L44.3222 37.1915V21.219L30.3317 29.3218V45.2943ZM27.9999 25.2995L41.8156 17.3133L27.9999 9.32702L14.1843 17.3133L27.9999 25.2995ZM9.34591 41.272C8.60753 40.8446 8.0343 40.281 7.62625 39.5815C7.21819 38.882 7.01416 38.1047 7.01416 37.2498V18.7123C7.01416 17.8574 7.21819 17.0801 7.62625 16.3806C8.0343 15.681 8.60753 15.1175 9.34591 14.6901L25.6682 5.30475C26.4066 4.87726 27.1838 4.66351 27.9999 4.66351C28.8161 4.66351 29.5933 4.87726 30.3317 5.30475L46.654 14.6901C47.3924 15.1175 47.9656 15.681 48.3736 16.3806C48.7817 17.0801 48.9857 17.8574 48.9857 18.7123V37.2498C48.9857 38.1047 48.7817 38.882 48.3736 39.5815C47.9656 40.281 47.3924 40.8446 46.654 41.272L30.3317 50.6574C29.5933 51.0848 28.8161 51.2986 27.9999 51.2986C27.1838 51.2986 26.4066 51.0848 25.6682 50.6574L9.34591 41.272Z" fill="#AB9E8B"/>
</g>
</g>
</svg>
