<svg width="57" height="56" viewBox="0 0 57 56" fill="none" xmlns="http://www.w3.org/2000/svg">
<g id="design_services">
<mask id="mask0_6_67" style="mask-type:alpha" maskUnits="userSpaceOnUse" x="0" y="0" width="57" height="56">
<rect id="Bounding box" x="0.518951" width="55.9621" height="55.9621" fill="#D9D9D9"/>
</mask>
<g mask="url(#mask0_6_67)">
<path id="design_services_2" d="M21.0384 25.5327L26.0517 20.4611L22.7872 17.1384L20.2223 19.7033L16.9578 16.4389L19.4645 13.8739L16.8412 11.2507L11.7697 16.3223L21.0384 25.5327ZM40.1588 44.7114L45.2303 39.6398L42.6071 37.0166L40.0422 39.5232L36.7777 36.2588L39.2844 33.6938L35.9616 30.4294L30.9483 35.4427L40.1588 44.7114ZM17.4242 48.9668H7.51422V39.0569L17.7156 28.8555L5.18246 16.3223L16.8412 4.66351L29.4327 17.255L38.2351 8.39432C38.7014 7.92797 39.2261 7.57821 39.809 7.34503C40.3919 7.11185 40.9943 6.99527 41.6161 6.99527C42.2379 6.99527 42.8403 7.11185 43.4232 7.34503C44.0062 7.57821 44.5308 7.92797 44.9972 8.39432L48.0867 11.5422C48.5531 12.0085 48.9028 12.5332 49.136 13.1161C49.3692 13.6991 49.4858 14.3014 49.4858 14.9232C49.4858 15.545 49.3692 16.1377 49.136 16.7012C48.9028 17.2647 48.5531 17.7796 48.0867 18.246L39.2844 27.1066L51.8175 39.6398L40.1588 51.2986L27.6256 38.7654L17.4242 48.9668ZM12.1777 44.3033H15.4422L38.2934 21.5104L34.9706 18.1877L12.1777 41.0389V44.3033Z" fill="#AB9E8B"/>
</g>
</g>
</svg>
