<svg width="23" height="22" viewBox="0 0 23 22" fill="none" xmlns="http://www.w3.org/2000/svg">
<g id="favorite">
<mask id="mask0_7_238" style="mask-type:alpha" maskUnits="userSpaceOnUse" x="0" y="0" width="23" height="22">
<rect id="Bounding box" x="0.608917" y="0.526367" width="21.4737" height="21.4737" fill="#D9D9D9"/>
</mask>
<g mask="url(#mask0_7_238)">
<path id="favorite_2" d="M11.3457 19.3156L10.0484 18.1525C8.54224 16.7955 7.29706 15.6248 6.31285 14.6406C5.32864 13.6564 4.54575 12.7729 3.96417 11.99C3.38259 11.2071 2.97623 10.4876 2.74509 9.83143C2.51395 9.17529 2.39838 8.50423 2.39838 7.81827C2.39838 6.41651 2.86811 5.2459 3.80759 4.30643C4.74706 3.36695 5.91767 2.89722 7.31943 2.89722C8.09487 2.89722 8.83303 3.06125 9.5339 3.38932C10.2348 3.71739 10.8387 4.17967 11.3457 4.77616C11.8528 4.17967 12.4567 3.71739 13.1576 3.38932C13.8585 3.06125 14.5966 2.89722 15.3721 2.89722C16.7738 2.89722 17.9444 3.36695 18.8839 4.30643C19.8234 5.2459 20.2931 6.41651 20.2931 7.81827C20.2931 8.50423 20.1775 9.17529 19.9464 9.83143C19.7153 10.4876 19.3089 11.2071 18.7273 11.99C18.1457 12.7729 17.3629 13.6564 16.3786 14.6406C15.3944 15.6248 14.1493 16.7955 12.6431 18.1525L11.3457 19.3156ZM11.3457 16.8998C12.7773 15.6174 13.9554 14.5176 14.88 13.6005C15.8045 12.6834 16.5352 11.8856 17.0721 11.2071C17.6089 10.5286 17.9817 9.92463 18.1905 9.39524C18.3993 8.86586 18.5036 8.3402 18.5036 7.81827C18.5036 6.92353 18.2054 6.17792 17.6089 5.58143C17.0124 4.98494 16.2668 4.68669 15.3721 4.68669C14.6712 4.68669 14.0225 4.88428 13.426 5.27945C12.8295 5.67463 12.4194 6.17792 12.1957 6.78932H10.4957C10.2721 6.17792 9.86197 5.67463 9.26548 5.27945C8.66899 4.88428 8.02031 4.68669 7.31943 4.68669C6.42469 4.68669 5.67908 4.98494 5.08259 5.58143C4.4861 6.17792 4.18785 6.92353 4.18785 7.81827C4.18785 8.3402 4.29224 8.86586 4.50101 9.39524C4.70978 9.92463 5.08259 10.5286 5.61943 11.2071C6.15627 11.8856 6.88697 12.6834 7.81153 13.6005C8.7361 14.5176 9.91417 15.6174 11.3457 16.8998Z" fill="#959595"/>
</g>
</g>
</svg>
