<svg width="23" height="22" viewBox="0 0 23 22" fill="none" xmlns="http://www.w3.org/2000/svg">
<g id="visibility">
<mask id="mask0_7_226" style="mask-type:alpha" maskUnits="userSpaceOnUse" x="0" y="0" width="23" height="22">
<rect id="Bounding box" x="0.608917" width="21.4737" height="21.4737" fill="#D9D9D9"/>
</mask>
<g mask="url(#mask0_7_226)">
<path id="visibility_2" d="M11.3458 14.3157C12.4642 14.3157 13.4148 13.9243 14.1977 13.1414C14.9806 12.3585 15.3721 11.4078 15.3721 10.2894C15.3721 9.17096 14.9806 8.2203 14.1977 7.43741C13.4148 6.65452 12.4642 6.26307 11.3458 6.26307C10.2273 6.26307 9.27669 6.65452 8.49379 7.43741C7.7109 8.2203 7.31945 9.17096 7.31945 10.2894C7.31945 11.4078 7.7109 12.3585 8.49379 13.1414C9.27669 13.9243 10.2273 14.3157 11.3458 14.3157ZM11.3458 12.7052C10.6747 12.7052 10.1043 12.4703 9.63458 12.0006C9.16485 11.5308 8.92998 10.9604 8.92998 10.2894C8.92998 9.61833 9.16485 9.04794 9.63458 8.5782C10.1043 8.10846 10.6747 7.87359 11.3458 7.87359C12.0168 7.87359 12.5872 8.10846 13.057 8.5782C13.5267 9.04794 13.7616 9.61833 13.7616 10.2894C13.7616 10.9604 13.5267 11.5308 13.057 12.0006C12.5872 12.4703 12.0168 12.7052 11.3458 12.7052ZM11.3458 16.9999C9.16857 16.9999 7.18524 16.3922 5.39577 15.1769C3.60629 13.9615 2.30893 12.3324 1.50366 10.2894C2.30893 8.2464 3.60629 6.61723 5.39577 5.40188C7.18524 4.18653 9.16857 3.57886 11.3458 3.57886C13.523 3.57886 15.5063 4.18653 17.2958 5.40188C19.0852 6.61723 20.3826 8.2464 21.1879 10.2894C20.3826 12.3324 19.0852 13.9615 17.2958 15.1769C15.5063 16.3922 13.523 16.9999 11.3458 16.9999ZM11.3458 15.2104C13.0309 15.2104 14.578 14.7668 15.9872 13.8795C17.3964 12.9922 18.4738 11.7955 19.2195 10.2894C18.4738 8.78324 17.3964 7.58653 15.9872 6.69925C14.578 5.81197 13.0309 5.36833 11.3458 5.36833C9.66068 5.36833 8.11353 5.81197 6.70432 6.69925C5.29511 7.58653 4.2177 8.78324 3.47208 10.2894C4.2177 11.7955 5.29511 12.9922 6.70432 13.8795C8.11353 14.7668 9.66068 15.2104 11.3458 15.2104Z" fill="#959595"/>
</g>
</g>
</svg>
