<svg width="100" height="16" viewBox="0 0 100 16" fill="none" xmlns="http://www.w3.org/2000/svg">
<path d="M0.26 15V2.4H3.194L8.414 10.968H6.866L11.942 2.4H14.876L14.912 15H11.636L11.6 7.386H12.158L8.36 13.758H6.776L2.87 7.386H3.554V15H0.26ZM17.2718 15V5.244H20.6918V15H17.2718ZM18.9818 4.164C18.3578 4.164 17.8538 3.99 17.4698 3.642C17.0858 3.294 16.8938 2.862 16.8938 2.346C16.8938 1.83 17.0858 1.398 17.4698 1.05C17.8538 0.702 18.3578 0.528 18.9818 0.528C19.6058 0.528 20.1098 0.696 20.4938 1.032C20.8778 1.356 21.0698 1.776 21.0698 2.292C21.0698 2.832 20.8778 3.282 20.4938 3.642C20.1218 3.99 19.6178 4.164 18.9818 4.164ZM29.2684 5.082C30.0244 5.082 30.7084 5.238 31.3204 5.55C31.9324 5.85 32.4124 6.318 32.7604 6.954C33.1204 7.59 33.3004 8.412 33.3004 9.42V15H29.8804V9.978C29.8804 9.282 29.7364 8.778 29.4484 8.466C29.1724 8.142 28.7824 7.98 28.2784 7.98C27.9184 7.98 27.5884 8.064 27.2884 8.232C26.9884 8.388 26.7544 8.634 26.5864 8.97C26.4184 9.306 26.3344 9.744 26.3344 10.284V15H22.9144V5.244H26.1724V8.016L25.5424 7.206C25.9144 6.498 26.4244 5.97 27.0724 5.622C27.7204 5.262 28.4524 5.082 29.2684 5.082ZM35.4476 15V5.244H38.8676V15H35.4476ZM37.1576 4.164C36.5336 4.164 36.0296 3.99 35.6456 3.642C35.2616 3.294 35.0696 2.862 35.0696 2.346C35.0696 1.83 35.2616 1.398 35.6456 1.05C36.0296 0.702 36.5336 0.528 37.1576 0.528C37.7816 0.528 38.2856 0.696 38.6696 1.032C39.0536 1.356 39.2456 1.776 39.2456 2.292C39.2456 2.832 39.0536 3.282 38.6696 3.642C38.2976 3.99 37.7936 4.164 37.1576 4.164ZM53.7982 5.082C54.5542 5.082 55.2262 5.238 55.8142 5.55C56.4142 5.85 56.8822 6.318 57.2182 6.954C57.5662 7.59 57.7402 8.412 57.7402 9.42V15H54.3202V9.978C54.3202 9.282 54.1882 8.778 53.9242 8.466C53.6602 8.142 53.3002 7.98 52.8442 7.98C52.5202 7.98 52.2262 8.058 51.9622 8.214C51.6982 8.37 51.4942 8.61 51.3502 8.934C51.2062 9.246 51.1342 9.654 51.1342 10.158V15H47.7142V9.978C47.7142 9.282 47.5822 8.778 47.3182 8.466C47.0662 8.142 46.7062 7.98 46.2382 7.98C45.9022 7.98 45.6022 8.058 45.3382 8.214C45.0862 8.37 44.8822 8.61 44.7262 8.934C44.5822 9.246 44.5102 9.654 44.5102 10.158V15H41.0902V5.244H44.3482V7.962L43.7002 7.188C44.0602 6.492 44.5522 5.97 45.1762 5.622C45.8002 5.262 46.4962 5.082 47.2642 5.082C48.1402 5.082 48.9082 5.31 49.5682 5.766C50.2402 6.21 50.6902 6.906 50.9182 7.854L49.8022 7.62C50.1502 6.828 50.6722 6.21 51.3682 5.766C52.0762 5.31 52.8862 5.082 53.7982 5.082ZM65.8568 15V13.182L65.6228 12.732V9.384C65.6228 8.844 65.4548 8.43 65.1188 8.142C64.7948 7.842 64.2728 7.692 63.5528 7.692C63.0848 7.692 62.6108 7.77 62.1308 7.926C61.6508 8.07 61.2428 8.274 60.9068 8.538L59.7548 6.216C60.3068 5.856 60.9668 5.58 61.7348 5.388C62.5148 5.184 63.2888 5.082 64.0568 5.082C65.6408 5.082 66.8648 5.448 67.7288 6.18C68.6048 6.9 69.0428 8.034 69.0428 9.582V15H65.8568ZM62.9768 15.162C62.1968 15.162 61.5368 15.03 60.9968 14.766C60.4568 14.502 60.0428 14.142 59.7548 13.686C59.4788 13.23 59.3408 12.72 59.3408 12.156C59.3408 11.556 59.4908 11.04 59.7908 10.608C60.1028 10.164 60.5768 9.828 61.2128 9.6C61.8488 9.36 62.6708 9.24 63.6788 9.24H65.9828V11.022H64.1468C63.5948 11.022 63.2048 11.112 62.9768 11.292C62.7608 11.472 62.6528 11.712 62.6528 12.012C62.6528 12.312 62.7668 12.552 62.9948 12.732C63.2228 12.912 63.5348 13.002 63.9308 13.002C64.3028 13.002 64.6388 12.912 64.9388 12.732C65.2508 12.54 65.4788 12.252 65.6228 11.868L66.0908 13.128C65.9108 13.8 65.5568 14.31 65.0288 14.658C64.5128 14.994 63.8288 15.162 62.9768 15.162ZM71.2015 15V1.644H74.6215V15H71.2015ZM76.8441 15V5.244H80.2641V15H76.8441ZM78.5541 4.164C77.9301 4.164 77.4261 3.99 77.0421 3.642C76.6581 3.294 76.4661 2.862 76.4661 2.346C76.4661 1.83 76.6581 1.398 77.0421 1.05C77.4261 0.702 77.9301 0.528 78.5541 0.528C79.1781 0.528 79.6821 0.696 80.0661 1.032C80.4501 1.356 80.6421 1.776 80.6421 2.292C80.6421 2.832 80.4501 3.282 80.0661 3.642C79.6941 3.99 79.1901 4.164 78.5541 4.164ZM86.0327 15.162C85.2047 15.162 84.3947 15.066 83.6027 14.874C82.8227 14.682 82.1927 14.442 81.7127 14.154L82.7387 11.814C83.1947 12.09 83.7287 12.312 84.3407 12.48C84.9527 12.636 85.5527 12.714 86.1407 12.714C86.7167 12.714 87.1127 12.654 87.3287 12.534C87.5567 12.414 87.6707 12.252 87.6707 12.048C87.6707 11.856 87.5627 11.718 87.3467 11.634C87.1427 11.538 86.8667 11.466 86.5187 11.418C86.1827 11.37 85.8107 11.316 85.4027 11.256C84.9947 11.196 84.5807 11.118 84.1607 11.022C83.7527 10.914 83.3747 10.758 83.0267 10.554C82.6907 10.338 82.4207 10.05 82.2167 9.69C82.0127 9.33 81.9107 8.874 81.9107 8.322C81.9107 7.698 82.0907 7.146 82.4507 6.666C82.8227 6.174 83.3627 5.79 84.0707 5.514C84.7787 5.226 85.6427 5.082 86.6627 5.082C87.3467 5.082 88.0367 5.154 88.7327 5.298C89.4407 5.43 90.0347 5.634 90.5147 5.91L89.4887 8.232C89.0087 7.956 88.5287 7.77 88.0487 7.674C87.5687 7.566 87.1127 7.512 86.6807 7.512C86.1047 7.512 85.6967 7.578 85.4567 7.71C85.2287 7.842 85.1147 8.004 85.1147 8.196C85.1147 8.388 85.2167 8.538 85.4207 8.646C85.6247 8.742 85.8947 8.82 86.2307 8.88C86.5787 8.928 86.9567 8.982 87.3647 9.042C87.7727 9.09 88.1807 9.168 88.5887 9.276C89.0087 9.384 89.3867 9.546 89.7227 9.762C90.0707 9.966 90.3467 10.248 90.5507 10.608C90.7547 10.956 90.8567 11.406 90.8567 11.958C90.8567 12.558 90.6707 13.098 90.2987 13.578C89.9387 14.058 89.3987 14.442 88.6787 14.73C87.9707 15.018 87.0887 15.162 86.0327 15.162ZM96.6864 15.162C95.4384 15.162 94.4664 14.856 93.7704 14.244C93.0744 13.62 92.7264 12.684 92.7264 11.436V3.066H96.1464V11.4C96.1464 11.748 96.2424 12.024 96.4344 12.228C96.6264 12.42 96.8724 12.516 97.1724 12.516C97.5804 12.516 97.9284 12.414 98.2164 12.21L99.0624 14.604C98.7744 14.796 98.4204 14.934 98.0004 15.018C97.5804 15.114 97.1424 15.162 96.6864 15.162ZM91.3044 8.16V5.604H98.3784V8.16H91.3044Z" fill="white"/>
</svg>
