<svg width="109" height="17" viewBox="0 0 109 17" fill="none" xmlns="http://www.w3.org/2000/svg">
<path d="M0.66 16.5V2.5H3.34L9.3 12.38H7.88L13.74 2.5H16.4L16.44 16.5H13.4L13.38 7.16H13.94L9.26 15.02H7.8L3.02 7.16H3.7V16.5H0.66ZM19.5416 16.5V5.74H22.6616V16.5H19.5416ZM21.1016 4.24C20.5282 4.24 20.0616 4.07333 19.7016 3.74C19.3416 3.40667 19.1616 2.99333 19.1616 2.5C19.1616 2.00667 19.3416 1.59333 19.7016 1.26C20.0616 0.926666 20.5282 0.759999 21.1016 0.759999C21.6749 0.759999 22.1416 0.919999 22.5016 1.24C22.8616 1.54667 23.0416 1.94667 23.0416 2.44C23.0416 2.96 22.8616 3.39333 22.5016 3.74C22.1549 4.07333 21.6882 4.24 21.1016 4.24ZM32.0972 5.58C32.9505 5.58 33.7105 5.75333 34.3772 6.1C35.0572 6.43333 35.5905 6.95333 35.9772 7.66C36.3639 8.35333 36.5572 9.24667 36.5572 10.34V16.5H33.4372V10.82C33.4372 9.95333 33.2439 9.31333 32.8572 8.9C32.4839 8.48667 31.9505 8.28 31.2572 8.28C30.7639 8.28 30.3172 8.38667 29.9172 8.6C29.5305 8.8 29.2239 9.11333 28.9972 9.54C28.7839 9.96667 28.6772 10.5133 28.6772 11.18V16.5H25.5572V5.74H28.5372V8.72L27.9772 7.82C28.3639 7.1 28.9172 6.54667 29.6372 6.16C30.3572 5.77333 31.1772 5.58 32.0972 5.58ZM39.3853 16.5V5.74H42.5053V16.5H39.3853ZM40.9453 4.24C40.372 4.24 39.9053 4.07333 39.5453 3.74C39.1853 3.40667 39.0053 2.99333 39.0053 2.5C39.0053 2.00667 39.1853 1.59333 39.5453 1.26C39.9053 0.926666 40.372 0.759999 40.9453 0.759999C41.5186 0.759999 41.9853 0.919999 42.3453 1.24C42.7053 1.54667 42.8853 1.94667 42.8853 2.44C42.8853 2.96 42.7053 3.39333 42.3453 3.74C41.9986 4.07333 41.532 4.24 40.9453 4.24ZM59.1809 5.58C60.0343 5.58 60.7876 5.75333 61.4409 6.1C62.1076 6.43333 62.6276 6.95333 63.0009 7.66C63.3876 8.35333 63.5809 9.24667 63.5809 10.34V16.5H60.4609V10.82C60.4609 9.95333 60.2809 9.31333 59.9209 8.9C59.5609 8.48667 59.0543 8.28 58.4009 8.28C57.9476 8.28 57.5409 8.38667 57.1809 8.6C56.8209 8.8 56.5409 9.10667 56.3409 9.52C56.1409 9.93333 56.0409 10.46 56.0409 11.1V16.5H52.9209V10.82C52.9209 9.95333 52.7409 9.31333 52.3809 8.9C52.0343 8.48667 51.5343 8.28 50.8809 8.28C50.4276 8.28 50.0209 8.38667 49.6609 8.6C49.3009 8.8 49.0209 9.10667 48.8209 9.52C48.6209 9.93333 48.5209 10.46 48.5209 11.1V16.5H45.4009V5.74H48.3809V8.68L47.8209 7.82C48.1943 7.08667 48.7209 6.53333 49.4009 6.16C50.0943 5.77333 50.8809 5.58 51.7609 5.58C52.7476 5.58 53.6076 5.83333 54.3409 6.34C55.0876 6.83333 55.5809 7.59333 55.8209 8.62L54.7209 8.32C55.0809 7.48 55.6543 6.81333 56.4409 6.32C57.2409 5.82667 58.1543 5.58 59.1809 5.58ZM72.9775 16.5V14.4L72.7775 13.94V10.18C72.7775 9.51333 72.5708 8.99333 72.1575 8.62C71.7575 8.24667 71.1375 8.06 70.2975 8.06C69.7242 8.06 69.1575 8.15333 68.5975 8.34C68.0508 8.51333 67.5842 8.75333 67.1975 9.06L66.0775 6.88C66.6642 6.46667 67.3708 6.14667 68.1975 5.92C69.0242 5.69333 69.8642 5.58 70.7175 5.58C72.3575 5.58 73.6308 5.96667 74.5375 6.74C75.4442 7.51333 75.8975 8.72 75.8975 10.36V16.5H72.9775ZM69.6975 16.66C68.8575 16.66 68.1375 16.52 67.5375 16.24C66.9375 15.9467 66.4775 15.5533 66.1575 15.06C65.8375 14.5667 65.6775 14.0133 65.6775 13.4C65.6775 12.76 65.8308 12.2 66.1375 11.72C66.4575 11.24 66.9575 10.8667 67.6375 10.6C68.3175 10.32 69.2042 10.18 70.2975 10.18H73.1575V12H70.6375C69.9042 12 69.3975 12.12 69.1175 12.36C68.8508 12.6 68.7175 12.9 68.7175 13.26C68.7175 13.66 68.8708 13.98 69.1775 14.22C69.4975 14.4467 69.9308 14.56 70.4775 14.56C70.9975 14.56 71.4642 14.44 71.8775 14.2C72.2908 13.9467 72.5908 13.58 72.7775 13.1L73.2575 14.54C73.0308 15.2333 72.6175 15.76 72.0175 16.12C71.4175 16.48 70.6442 16.66 69.6975 16.66ZM78.7213 16.5V1.66H81.8413V16.5H78.7213ZM84.7369 16.5V5.74H87.8569V16.5H84.7369ZM86.2969 4.24C85.7235 4.24 85.2569 4.07333 84.8969 3.74C84.5369 3.40667 84.3569 2.99333 84.3569 2.5C84.3569 2.00667 84.5369 1.59333 84.8969 1.26C85.2569 0.926666 85.7235 0.759999 86.2969 0.759999C86.8702 0.759999 87.3369 0.919999 87.6969 1.24C88.0569 1.54667 88.2369 1.94667 88.2369 2.44C88.2369 2.96 88.0569 3.39333 87.6969 3.74C87.3502 4.07333 86.8835 4.24 86.2969 4.24ZM94.3725 16.66C93.4525 16.66 92.5658 16.5533 91.7125 16.34C90.8725 16.1133 90.2058 15.8333 89.7125 15.5L90.7525 13.26C91.2458 13.5667 91.8258 13.82 92.4925 14.02C93.1725 14.2067 93.8392 14.3 94.4925 14.3C95.2125 14.3 95.7192 14.2133 96.0125 14.04C96.3192 13.8667 96.4725 13.6267 96.4725 13.32C96.4725 13.0667 96.3525 12.88 96.1125 12.76C95.8858 12.6267 95.5792 12.5267 95.1925 12.46C94.8058 12.3933 94.3792 12.3267 93.9125 12.26C93.4592 12.1933 92.9992 12.1067 92.5325 12C92.0658 11.88 91.6392 11.7067 91.2525 11.48C90.8658 11.2533 90.5525 10.9467 90.3125 10.56C90.0858 10.1733 89.9725 9.67333 89.9725 9.06C89.9725 8.38 90.1658 7.78 90.5525 7.26C90.9525 6.74 91.5258 6.33333 92.2725 6.04C93.0192 5.73333 93.9125 5.58 94.9525 5.58C95.6858 5.58 96.4325 5.66 97.1925 5.82C97.9525 5.98 98.5858 6.21333 99.0925 6.52L98.0525 8.74C97.5325 8.43333 97.0058 8.22667 96.4725 8.12C95.9525 8 95.4458 7.94 94.9525 7.94C94.2592 7.94 93.7525 8.03333 93.4325 8.22C93.1125 8.40667 92.9525 8.64667 92.9525 8.94C92.9525 9.20667 93.0658 9.40667 93.2925 9.54C93.5325 9.67333 93.8458 9.78 94.2325 9.86C94.6192 9.94 95.0392 10.0133 95.4925 10.08C95.9592 10.1333 96.4258 10.22 96.8925 10.34C97.3592 10.46 97.7792 10.6333 98.1525 10.86C98.5392 11.0733 98.8525 11.3733 99.0925 11.76C99.3325 12.1333 99.4525 12.6267 99.4525 13.24C99.4525 13.9067 99.2525 14.5 98.8525 15.02C98.4525 15.5267 97.8725 15.9267 97.1125 16.22C96.3658 16.5133 95.4525 16.66 94.3725 16.66ZM105.778 16.66C104.511 16.66 103.524 16.34 102.818 15.7C102.111 15.0467 101.758 14.08 101.758 12.8V3.36H104.878V12.76C104.878 13.2133 104.998 13.5667 105.238 13.82C105.478 14.06 105.804 14.18 106.218 14.18C106.711 14.18 107.131 14.0467 107.478 13.78L108.318 15.98C107.998 16.2067 107.611 16.38 107.158 16.5C106.718 16.6067 106.258 16.66 105.778 16.66ZM100.098 8.38V5.98H107.558V8.38H100.098Z" fill="#313131"/>
</svg>
